<svg xmlns="http://www.w3.org/2000/svg" xmlns:xlink="http://www.w3.org/1999/xlink" viewBox="0 0 2719.01 1092.94"><defs><style>.cls-1{fill:url(#Gradiente_sem_nome_84);}.cls-2{fill:#01528a;}</style><linearGradient id="Gradiente_sem_nome_84" y1="546.47" x2="1153.24" y2="546.47" gradientUnits="userSpaceOnUse"><stop offset="0" stop-color="#01886f"/><stop offset="1" stop-color="#005491"/></linearGradient></defs><g id="Camada_2" data-name="Camada 2"><g id="Camada_1-2" data-name="Camada 1"><path class="cls-1" d="M476.48,1092.53C167.21,1077.93,38,878.59,0,807c0,0,99.32,12.84,188-47.39C328.9,664,309.31,505.54,309.31,505.54S-28.92,394.65,4.41,0c0,0,104.68,153.46,327,127.08,226.81-26.91,208.48-98.44,376.93-96.33,309.72,3.89,442.13,223.7,442.13,223.7l-771,5L311.1,442l250.44-1.07L388.93,893.71H586.31L756.38,442l396.86-1.32s-46.17-8.78-148.3,45.69c-61.2,32.64-137.63,114.85-161,217.48-17.34,76.06,4.46,159-92.78,273.27C680.08,1060.57,576.92,1097.28,476.48,1092.53Z"/><path class="cls-2" d="M1243.68,776.13l-13.42,36.09a104.17,104.17,0,0,1-18.93,31.07,150.27,150.27,0,0,1-29.49,26,153.1,153.1,0,0,1-36.09,18,116,116,0,0,1-38.51,6.57,127.68,127.68,0,0,1-31.89-4.13q-15.46-4-25.26-14.06T1037.49,850c-1.87-10.48-1.1-23.85,5.1-40.1l74.35-195.06c4.43-11.61,12.2-22.38,20.52-32.31a132.47,132.47,0,0,1,29.11-25.8,145.32,145.32,0,0,1,36.27-17,133.37,133.37,0,0,1,40.59-6.05q40.77.17,57.33,23.67,8.09,11.5,9.2,27.2t-5.91,34.12l-14,36.61H1232.4l7.36-19.72q5.68-14.92.24-25.91t-21.88-11.06c-14.35-.06-24.55,2.1-33.41,9.38-8.46,6.94-10.44,12.49-18,31.77l-56.36,147.85c-5.06,13.28-9.55,26.76,1.56,35.62,3,2.4,14.23,4.83,17.53,5a44.62,44.62,0,0,0,13.12-.86,57,57,0,0,0,14.35-5.67,53,53,0,0,0,12.67-10.91,57.17,57.17,0,0,0,10-17.4l6.89-17.23Zm-8.58,118.34,136.58-360.34,62.47.26-45.66,124.39,121.23-124.06h70L1431.25,684.31l10.88,211.06-65.34-.29-6.45-148.53L1343,773.86l-45.43,120.88Zm484.62,2.09L1832.1,599.2l-68.16-.3,23.81-63,195.21.84-23.8,63-68.15-.3L1778.63,896.82Zm147.51-1.73,136.19-359,166.39.72L2146,599.29l-100.81-.43-30.72,81,100.51.43-22.17,58.44-100.51-.43-34.54,91,100.81.43-24.95,65.77Zm205.36.43,136.18-358.71,66.26.29-136.18,358.7Zm104.94-2.68,135-355.66h0l95,.4c69.49.3,94.73,34.62,68.31,104.22-8,21-22.41,55.83-70.92,74.45l6.53,4.75c15.71,11.41,20.67,32.45,13.15,55.74h0l-45.85,119.95-66.43-.28,38.72-102h0c4.45-17.81,5.41-30.23-.67-39.79-4.71-7.39-13.07-11.63-23.16-12.45-3.27-.26-6.6-.48-8.82-.49l-22.69-.31L2237.09,896.4l-60.35-.83ZM2348,600.9l-31.31,82.86,1.19-2.24,33,.43c32.18-.22,45.15-4.49,57.55-37.29,13.33-35.26-5.9-43.68-29.77-43.63L2348,600.9Zm170.34,21.78a119.1,119.1,0,0,1,22.94-37.74,141.78,141.78,0,0,1,33.15-27.23,154,154,0,0,1,37-15.78,136.3,136.3,0,0,1,37-5.31,96.76,96.76,0,0,1,32.84,5.61,66.78,66.78,0,0,1,25.45,16q9.45,11,11.72,27.43t-5.9,37.81L2641.3,810.37a117.83,117.83,0,0,1-23.12,38.23,140.57,140.57,0,0,1-32.2,26.25,156,156,0,0,1-37.78,16.26,136.05,136.05,0,0,1-37,5.32,96.63,96.63,0,0,1-32.84-5.61,57.87,57.87,0,0,1-24.7-16.54q-10.21-10.49-12.66-26.43t6.09-38.31Zm-8,175.53c-4.68,12.39-4.63,18.06.92,23.94s14.6,8.37,25.21,8.42,27.69-.53,35.06-4.86c9-5.25,12.51-14.77,17.19-27.16L2600,768.84l49.3-130.44c4.67-12.38,5.73-22.4.19-28.29s-14.71-9.77-25.31-9.81a62.3,62.3,0,0,0-31.48,8.86c-10,5.82-17.11,16.52-21.78,28.9Zm-1603.11,97,135-361.47,66.25.28-135,361.48Zm556,.22L1599.36,535.3l166.39.72L1742,599l-100.8-.44-30.71,81.26,100.51.43-22.16,58.64-100.51-.44-34.52,91.33,100.81.44-24.94,66Z"/></g></g></svg>